<svg id="Capa_1" enable-background="new 0 0 512 512" height="512" viewBox="0 0 512 512" width="512" xmlns="http://www.w3.org/2000/svg"><g><g><path d="m103 184.999v58.7l-.02.1-62.98-10.68-20.84 118.18c81.536 13.64 116.744 19.531 116.98 19.57h.01l89.85-122.09v-63.78z" fill="#ff7d97"/><path d="m427.76 102.939c-22.894 13.574-84.468 41.658-96.37 21.03-8.29-14.35 19.89-46.13 62.94-70.98.03-.02.07-.04.1-.06 43-24.8 84.57-33.3 92.84-18.96 8.06 13.97-18.42 44.44-59.51 68.97z" fill="#ffda8f"/><path d="m472 233.119-62.98 10.68-.02-.1v-58.7h-123v63.78l89.85 122.09h.01c2.15-.36 106.574-17.829 116.98-19.57z" fill="#ff7d97"/><path d="m256 244.999c69.037 0 123.33 58.008 119.85 125.87-3.05 63.54-55.55 114.13-119.85 114.13s-116.8-50.59-119.85-114.13c-3.48-67.857 50.816-125.87 119.85-125.87z" fill="#eefaff"/><circle cx="256" cy="364.999" fill="#ff7d97" r="30"/><path d="m84.24 102.939c-41.09-24.53-67.57-55-59.51-68.97 8.27-14.34 49.84-5.84 92.84 18.96.03.02.07.04.1.06 43.05 24.85 71.23 56.63 62.94 70.98-11.827 20.497-72.392-6.813-96.37-21.03z" fill="#ffda8f"/></g><g><path d="m502 134.999c5.522 0 10-4.478 10-10s-4.478-10-10-10h-54.553l-5.778-8.95c17.061-11.071 31.706-23.294 41.84-35.013 18.189-21.034 16.795-34.484 12.423-42.063-4.472-7.754-15.743-15.785-44.061-9.999-16.225 3.314-35.212 10.597-54.235 20.741l-7.317-10.973c-3.065-4.596-9.273-5.835-13.868-2.772-4.595 3.064-5.836 9.273-2.771 13.868l6.625 9.935c-17.909 11.252-33.376 23.825-44.18 36.01-19.19 21.642-17.876 35.432-13.396 43.185 8.089 14.022 28.297 13.224 44.098 9.989 17.195-3.52 37.492-11.5 57.674-22.628l9.099 14.095c1.842 2.853 5.006 4.576 8.401 4.576h20v89.673l-43 7.294v-46.967c0-5.522-4.478-10-10-10h-123.001c-5.522 0-10 4.478-10 10v51.546c-13.208-2.027-26.798-2.026-40 0v-51.545c0-5.522-4.477-10-10-10h-123c-5.523 0-10 4.478-10 10v46.967l-43-7.294v-89.673h20c3.396 0 6.56-1.724 8.401-4.576l9.098-14.094c20.165 11.121 40.471 19.106 57.674 22.627 15.843 3.242 36.019 4.016 44.095-9.985 4.482-7.757 5.796-21.547-13.394-43.188-10.804-12.185-26.27-24.758-44.18-36.01l6.626-9.936c3.064-4.595 1.823-10.804-2.771-13.867-4.596-3.065-10.804-1.823-13.868 2.771l-7.318 10.974c-19.023-10.146-38.011-17.429-54.235-20.743-28.314-5.782-39.588 2.244-44.06 9.998-4.373 7.579-5.768 21.029 12.421 42.063 10.131 11.716 24.77 23.934 41.841 35.013l-5.778 8.951h-54.552c-5.523 0-10 4.478-10 10s4.477 10 10 10h20v97.245l-20.688 117.319c-.463 2.627.143 5.33 1.682 7.508 1.54 2.179 3.886 3.651 6.517 4.092l12.489 2.089v111.747h-20c-5.523 0-10 4.478-10 10s4.477 10 10 10h340.999c5.522 0 10-4.478 10-10s-4.478-10-10-10h-25.593c32.543-20.528 55.35-55.122 59.785-95.552l76.809-12.849v108.401h-21c-5.522 0-10 4.478-10 10s4.478 10 10 10h61c5.522 0 10-4.478 10-10s-4.478-10-10-10h-20v-111.747l12.489-2.089c2.631-.44 4.978-1.913 6.517-4.092 1.54-2.178 2.146-4.881 1.682-7.508l-20.688-117.316v-97.248zm-139.184-15.636c-16.658 3.409-22.336.352-22.768-.396-.43-.744-.238-7.196 11.041-19.916 11.193-12.623 28.325-25.906 48.239-37.4.065-.038.131-.076.195-.116 19.861-11.443 39.87-19.598 56.351-22.965 16.634-3.4 22.304-.346 22.732.396.408.707.271 6.85-10.226 18.987-10.477 12.115-26.724 25.043-45.722 36.385-17.985 10.65-39.707 20.904-59.842 25.025zm-319.198-61.41c-10.496-12.138-10.633-18.28-10.225-18.988 2.139-3.712 18.505-1.259 22.732-.396 16.483 3.367 36.496 11.524 56.36 22.971h.001c.062.037.123.074.186.11 19.914 11.494 37.046 24.777 48.239 37.4 11.279 12.72 11.47 19.172 11.038 19.921-.429.743-6.113 3.797-22.764.391-20.069-4.108-41.857-14.359-59.818-25.009-19.025-11.357-35.272-24.284-45.749-36.4zm342.23 301.106c-1.664-36.426-18.548-70.199-45.983-93.384l124.012-21.035 17.362 98.46zm13.152-164.06v40.359l-83.322 14.133c-6.332-3.281-12.917-6.031-19.678-8.216v-46.277h103zm-286 0h103v46.277c-6.763 2.185-13.348 4.936-19.678 8.216l-83.322-14.133zm13.152 164.06-95.392-15.959 17.363-98.46 124.012 21.035c-27.435 23.185-44.319 56.957-45.983 93.384zm-76.152 115.94v-108.401l76.81 12.85c4.445 40.436 27.25 75.026 59.786 95.551zm206 0c-58.789 0-107.045-45.95-109.863-104.643-3.213-62.522 46.929-115.357 109.863-115.357 62.903 0 113.089 52.78 109.861 115.391-2.815 58.659-51.072 104.609-109.861 104.609z"/><path d="m256 324.999c-22.056 0-40 17.944-40 40s17.944 40 40 40 40-17.944 40-40-17.944-40-40-40zm0 60c-11.028 0-20-8.972-20-20s8.972-20 20-20 20 8.972 20 20-8.972 20-20 20z"/><circle cx="396" cy="484.999" r="10"/></g></g></svg>